<svg id="Layer_1" height="512" viewBox="0 0 512 512" width="512" xmlns="http://www.w3.org/2000/svg" data-name="Layer 1"><path d="m30.8 220.774a11.689 11.689 0 0 0 6.287-1.016c4.595-2.144 13.118-6.186 18.56-9.167.476-.26 1.035-.542 1.633-.837-8.365-23.576-19.733-25.946-23.474-26.043a40.846 40.846 0 0 1 -7.961 5.745 12.981 12.981 0 0 0 -6.367 7.715c-.32 1.092-.693 2.243-1.08 3.431-1.7 5.241-3.632 11.181-1.4 14.657 1.784 2.772 6.557 4.68 13.802 5.515z"/><path d="m245.5 407.237 17.857-.624a.673.673 0 0 0 .4-1l-2.644-4.226a18.96 18.96 0 0 1 -.989-18.322l2.784-5.747a2.4 2.4 0 0 0 .114-1.809q-.519-1.552-1.007-3.111a149.958 149.958 0 0 1 -3.594-73.833l1.809-9.093c-4.7.273-8.175 1.646-10.37 4.123-5.341 6.028-2.48 17.418-2.45 17.531a4.987 4.987 0 0 1 .17 1.37l-.818 54.844a37 37 0 0 0 .2 4.453l2.253 21.2a18.931 18.931 0 0 1 -1.79 10.266z"/><path d="m69.648 114.318c-4.387-7.978-7.178-17.844-8.948-26.868a64.987 64.987 0 0 0 -10.273-8.036c2.357 10.486 7.072 27 14.93 37.445 1.553-.998 3.008-1.845 4.291-2.541z"/><path d="m492.993 336.655q.381-4.318 1.2-9.485c.145-.908.3-1.842.464-2.8 1.535-9.074 3.123-18.456-3.526-24.573a24.791 24.791 0 0 1 -6.437-9.561c-1.422 12.425-1.045 30.277 8.299 46.419z"/><path d="m66.367 205.445c12.448-6.056 30.453-16.312 28.719-29.379a5 5 0 1 1 9.914-1.315 23.768 23.768 0 0 1 -2.419 13.989c30.869 33.726 58.811 53.626 73.641 62.962a65.472 65.472 0 0 1 -.871-27.7c3.115-16.741 11.881-26.879 12.252-27.3a5 5 0 0 1 7.525 6.585c-1.245 1.442-29.251 34.929 9.628 80.8.545.631 14.059 16.623 10.933 44.087-.809 7.11.377 16.5 1.645 24.757.881 5.741 1.805 11.336 2.7 16.747 5.161 31.281 8.277 50.162-1.753 55.411a32.238 32.238 0 0 0 -12.521 12.386l34.067-1.456a.671.671 0 0 0 .412-1.006l-2.643-4.225c-4.53-7.239-5.191-19.45-1.468-27.135l2.3-4.751a8.95 8.95 0 0 0 .846-4.85l-2.385-22.78a25.862 25.862 0 0 1 -.139-3.1l.823-55.2c-.753-3.356-3.173-17.01 4.8-26.011 5.668-6.394 14.837-8.742 27.267-6.968 2.464.351 4.979.725 7.538 1.106 33.4 4.974 71.151 10.578 102.85-16.491a131.637 131.637 0 0 1 -5.878-26.768c-2.8-25.69 3.4-42.365 3.665-43.063a5 5 0 0 1 9.35 3.546c-.1.271-5.678 15.649-3.008 39.023 2.477 21.684 12.776 54.933 47.776 90.192a26.926 26.926 0 0 1 7.565 15.981c4.211 38.2-12.623 72.23-13.342 73.66a4.991 4.991 0 0 1 -1.416 1.715l-11.308 8.713c-2.389 1.842-6.258 8.171-8.812 13.047l25.71-1.032.064-.084a14.912 14.912 0 0 1 1.59-13.577l9.546-14.159a15.061 15.061 0 0 0 2.369-5.957l12.993-78.452a3.878 3.878 0 0 0 -1.242-3.545c-9.414-8.394-38.3-38-14.688-66.543 23.55-28.476 22.654-67.364 22.642-67.754a5 5 0 0 1 9.241-2.8c.663 1.063 16.128 26.4 6.9 57.268-3.3 11.018-.478 19.04 2.464 23.83a24.089 24.089 0 0 1 1.26 2.326c.453-12.363 1.27-30.059 2.185-35.448a90.968 90.968 0 0 0 -3.685-45.621c-8.275-23.257-23.185-37.831-44.317-43.313-26.3-6.822-41.377-2.131-60.471 3.807-19.281 6-41.133 12.794-79.316 9.16-37.643-3.581-52.375.061-63.128 2.72s-17.833 4.41-36.705-3.047c-10.745-4.245-60.052-28.056-88.487-41.871a50.224 50.224 0 0 1 -22.674-22.048 71.882 71.882 0 0 0 -18.488-23.166c1.23 11.71 4.411 30.959 12.456 42.008a5.117 5.117 0 0 1 .977 2.265 5.021 5.021 0 0 1 -3.143 5.436c-.229.089-23.991 9.661-28.677 32.083a61.893 61.893 0 0 1 -8.845 21.954c7.597 2.642 17.789 10.113 25.216 30.351z"/><path d="m408.353 399.068c-.088.078-.178.153-.271.224l-11.309 8.713c-2.381 1.836-6.251 8.167-8.809 13.047l18.636-.752c.243-.215.486-.433.728-.619l10.359-7.982c2.631-5.7 15.371-35.336 11.871-67.089a16.881 16.881 0 0 0 -4.722-10.033c-21.054-21.21-33.679-41.858-41.141-60.032q-3.381 2.678-6.833 4.938c1.471 8.273 8.761 27.3 21.563 41.291 15.679 17.136 23.211 33.966 22.383 50.023a42.472 42.472 0 0 1 -12.455 28.271z"/></svg>