<svg id="Capa_1" enable-background="new 0 0 512 512" height="512" viewBox="0 0 512 512" width="512" xmlns="http://www.w3.org/2000/svg"><g><g><path d="m241.394 249.043-45.702-45.703 21.254-21.253 24.448 24.448 53.568-53.567 21.254 21.253z"/></g><g><path d="m256 332.821c-71.158 0-129.049-57.891-129.049-129.049s57.891-129.049 129.049-129.049 129.049 57.891 129.049 129.049-57.891 129.049-129.049 129.049zm0-228.041c-54.585 0-98.992 44.408-98.992 98.992s44.407 98.992 98.992 98.992 98.992-44.408 98.992-98.992-44.407-98.992-98.992-98.992z"/></g><g><path d="m255.775 512-69.302-116.64c-38.02-13.774-70.72-38.276-94.839-71.13-25.779-35.116-39.406-76.77-39.406-120.458 0-112.361 91.412-203.772 203.772-203.772s203.772 91.411 203.772 203.772c0 84.819-52.669 160.735-131.622 190.613zm.225-481.943c-95.787 0-173.715 77.928-173.715 173.715 0 75.053 47.835 141.332 119.03 164.925l5.326 1.765 49.583 83.454 51.874-84.299 5.053-1.76c69.72-24.281 116.564-90.222 116.564-164.085 0-95.787-77.928-173.715-173.715-173.715z"/></g></g></svg>