<?xml version="1.0" encoding="UTF-8"?>
<svg xmlns="http://www.w3.org/2000/svg" viewBox="0 0 512 512" width="512" height="512"><g id="solid"><path d="M75.35,401.49l10.431-7.45A100.584,100.584,0,0,0,115.829,360H112a96.086,96.086,0,0,1-54.757-17.259,78.268,78.268,0,0,1-5.707,39.985l-5.181,12.086a26.008,26.008,0,0,0,1.851,24.022L76.434,464H99.056L72.845,411.578A8,8,0,0,1,75.35,401.49Z"/><path d="M115.35,401.49l10.431-7.45a101.325,101.325,0,0,0,26.068-27.333q-9.618-2-19.054-4.811a116.53,116.53,0,0,1-37.714,45.163l-4.869,3.478L116.944,464h22.112l-26.211-52.422A8,8,0,0,1,115.35,401.49Z"/><path d="M461.892,158l15.634,7.818a13.02,13.02,0,0,0-9.2-12.152,8,8,0,0,1-5.561-6.192,12.88,12.88,0,0,0-17.269-9.7,8,8,0,0,1-5.873-.087c-.931-.383-1.953-.761-3.124-1.155a8,8,0,0,1-3.694-2.58,12.917,12.917,0,0,0-19.293-1.028,8,8,0,0,1-3.954,2.181,50.906,50.906,0,0,0-4.965,1.362,7.987,7.987,0,0,1-4.8.075,12.925,12.925,0,0,0-16.38,9.809,8,8,0,0,1-2.389,4.255l31.831,13.641A44.409,44.409,0,0,1,461.892,158Z"/><path d="M57.811,176.949a32.021,32.021,0,0,1,13.283-7.685c.755-1.092,1.573-2.128,2.425-3.131a4.145,4.145,0,0,0-1.511-.756L36.586,156A49.541,49.541,0,0,0,57.811,176.949Z"/><path d="M296.4,410.492c-.017-.051-.023-.105-.039-.157a8.025,8.025,0,0,1-.242-.975c-.016-.093-.015-.188-.028-.281A7.853,7.853,0,0,1,296,408.2c0-.122.015-.245.017-.367.006-.266.006-.531.038-.8L301.76,360H277.876l-5.645,46.574L300.944,464h22.112l-26.211-52.422A8.053,8.053,0,0,1,296.4,410.492Z"/><path d="M336.058,407.037l6.03-49.748A58.682,58.682,0,0,1,324.4,360h-6.428l-5.733,46.581,14.886,29.773L340.944,464h15.512l-19.947-53.191A8.01,8.01,0,0,1,336.058,407.037Z"/><path d="M472.437,181.163l-17.7-8.851A28.39,28.39,0,0,0,420.684,179a8,8,0,0,1-9.172,2.084l-42.066-18.028-.828,3.313A20.687,20.687,0,0,0,380.194,190.2a21.3,21.3,0,0,0,8.862,1.8h16.666a7.939,7.939,0,0,1,7.977,7.374,28.289,28.289,0,0,0,2.244,9.518L424,227.68c9.227,21.528,31.436,33.918,54.012,30.132l.014,0a1.5,1.5,0,0,0,1.236-1.623ZM448,213a13,13,0,1,1,13-13A13,13,0,0,1,448,213Z"/><path d="M401.236,215.194a44.319,44.319,0,0,1-2.38-7.194h-9.8a37.171,37.171,0,0,1-15.473-3.227A36.684,36.684,0,0,1,353.1,162.486l1.625-6.5a23.972,23.972,0,0,0-9.045,11.2,7.994,7.994,0,0,1-4.6,4.54l-.51.2c-.314.121-.627.241-.942.359a8,8,0,0,1-7-.7,23.993,23.993,0,0,0-32.977,7.7,8,8,0,0,1-5.956,3.713c-.384.039-.77.075-1.154.109l-.546.051a8,8,0,0,1-7.558-3.758,24,24,0,0,0-41.214.6A8,8,0,0,1,236.292,184h-.584a8,8,0,0,1-6.923-3.993,23.993,23.993,0,0,0-41.569,0A8,8,0,0,1,180.292,184h-.584a8,8,0,0,1-6.923-3.993A23.986,23.986,0,0,0,134,176.138a8,8,0,0,1-12,0,23.988,23.988,0,0,0-38.923,4.107,8,8,0,0,1-5.682,3.97A16.012,16.012,0,0,0,65.609,193a8,8,0,0,1-5.8,4.373A23.94,23.94,0,0,0,40,221a24.3,24.3,0,0,0,.341,4.009,8,8,0,0,1-.662,4.754A79.262,79.262,0,0,0,32,264a81.082,81.082,0,0,0,.519,9.1,7.991,7.991,0,0,1-.09,2.391A24.3,24.3,0,0,0,32,280a23.931,23.931,0,0,0,6.334,16.24,8.007,8.007,0,0,1,1.341,1.988A80.414,80.414,0,0,0,112,344h16a8.009,8.009,0,0,1,2.541.414,220.086,220.086,0,0,0,135.978.949A14.752,14.752,0,0,1,272,344h52.4a42.574,42.574,0,0,0,25.125-8.153,7.958,7.958,0,0,1,2.14-1.1,23.973,23.973,0,0,0,16.194-25.358,8.007,8.007,0,0,1,.436-3.6l.325-.894a8,8,0,0,1,3.478-4.17A24.112,24.112,0,0,0,384,280a8,8,0,0,1,8-8,24.027,24.027,0,0,0,24-24,8.06,8.06,0,0,1,.177-1.67,68.216,68.216,0,0,1-6.888-12.348Z"/></g></svg>
